<?xml version="1.0" encoding="UTF-8" standalone="no"?>
<!DOCTYPE svg PUBLIC "-//W3C//DTD SVG 1.1//EN"
 "http://www.w3.org/Graphics/SVG/1.1/DTD/svg11.dtd">
<!-- Generated by graphviz version 2.40.1 (20161225.0304)
 -->
<!-- Title: g Pages: 1 -->
<svg width="674pt" height="333pt"
 viewBox="0.00 0.00 674.00 332.82" xmlns="http://www.w3.org/2000/svg" xmlns:xlink="http://www.w3.org/1999/xlink">
<g id="graph0" class="graph" transform="scale(1 1) rotate(0) translate(4 328.82)">
<title>g</title>
<polygon fill="#ffffff" stroke="transparent" points="-4,4 -4,-328.82 670,-328.82 670,4 -4,4"/>
<text text-anchor="middle" x="333" y="-15.62" font-family="Times,serif" font-size="14.00" fill="#000000">k=6の場合</text>
<!-- 0 -->
<g id="node1" class="node">
<title>0</title>
<ellipse fill="none" stroke="#000000" cx="502" cy="-306.82" rx="27" ry="18"/>
<text text-anchor="middle" x="502" y="-302.62" font-family="Times,serif" font-size="14.00" fill="#000000">0</text>
</g>
<!-- 1 -->
<g id="node2" class="node">
<title>1</title>
<ellipse fill="none" stroke="#000000" cx="207" cy="-220.82" rx="27" ry="18"/>
<text text-anchor="middle" x="207" y="-216.62" font-family="Times,serif" font-size="14.00" fill="#000000">1</text>
</g>
<!-- 0&#45;&#45;1 -->
<g id="edge1" class="edge">
<title>0&#45;&#45;1</title>
<path fill="none" stroke="#000000" d="M477.1027,-299.5618C421.5398,-283.3638 287.9363,-244.415 232.1436,-228.15"/>
<text text-anchor="middle" x="380.4478" y="-259.62" font-family="Times,serif" font-size="14.00" fill="#000000">+1</text>
</g>
<!-- 10 -->
<g id="node3" class="node">
<title>10</title>
<ellipse fill="none" stroke="#000000" cx="441" cy="-220.82" rx="27" ry="18"/>
<text text-anchor="middle" x="441" y="-216.62" font-family="Times,serif" font-size="14.00" fill="#000000">10</text>
</g>
<!-- 0&#45;&#45;10 -->
<g id="edge2" class="edge">
<title>0&#45;&#45;10</title>
<path fill="none" stroke="#000000" d="M490.2386,-290.2384C479.4369,-275.0097 463.5156,-252.5633 452.7253,-237.3508"/>
<text text-anchor="middle" x="486.9478" y="-259.62" font-family="Times,serif" font-size="14.00" fill="#000000">+10</text>
</g>
<!-- 100 -->
<g id="node4" class="node">
<title>100</title>
<ellipse fill="#c0c0c0" stroke="#000000" cx="549" cy="-220.82" rx="27" ry="18"/>
<text text-anchor="middle" x="549" y="-216.62" font-family="Times,serif" font-size="14.00" fill="#000000">100</text>
</g>
<!-- 0&#45;&#45;100 -->
<g id="edge3" class="edge">
<title>0&#45;&#45;100</title>
<path fill="none" stroke="#000000" d="M511.2857,-289.8292C519.5254,-274.7522 531.4997,-252.8419 539.7336,-237.7756"/>
<text text-anchor="middle" x="543.4478" y="-259.62" font-family="Times,serif" font-size="14.00" fill="#000000">+100</text>
</g>
<!-- ...1 -->
<g id="node5" class="node">
<title>...1</title>
<ellipse fill="none" stroke="#000000" cx="621" cy="-220.82" rx="27" ry="18"/>
<text text-anchor="middle" x="621" y="-216.62" font-family="Times,serif" font-size="14.00" fill="#000000">...</text>
</g>
<!-- 0&#45;&#45;...1 -->
<g id="edge4" class="edge">
<title>0&#45;&#45;...1</title>
<path fill="none" stroke="#000000" d="M523.0776,-295.2949C534.8285,-288.5951 549.5579,-279.7349 562,-270.82 577.2798,-259.872 593.4926,-245.9447 605.0481,-235.5711"/>
</g>
<!-- 2 -->
<g id="node6" class="node">
<title>2</title>
<ellipse fill="none" stroke="#000000" cx="63" cy="-134.82" rx="27" ry="18"/>
<text text-anchor="middle" x="63" y="-130.62" font-family="Times,serif" font-size="14.00" fill="#000000">2</text>
</g>
<!-- 1&#45;&#45;2 -->
<g id="edge5" class="edge">
<title>1&#45;&#45;2</title>
<path fill="none" stroke="#000000" d="M186.6737,-208.6807C159.2293,-192.2903 110.614,-163.2562 83.2229,-146.8976"/>
<text text-anchor="middle" x="151.4478" y="-173.62" font-family="Times,serif" font-size="14.00" fill="#000000">+1</text>
</g>
<!-- 11A -->
<g id="node7" class="node">
<title>11A</title>
<ellipse fill="none" stroke="#000000" cx="135" cy="-134.82" rx="27" ry="18"/>
<text text-anchor="middle" x="135" y="-130.62" font-family="Times,serif" font-size="14.00" fill="#000000">11</text>
</g>
<!-- 1&#45;&#45;11A -->
<g id="edge6" class="edge">
<title>1&#45;&#45;11A</title>
<path fill="none" stroke="#000000" d="M193.7941,-205.0463C180.8842,-189.6261 161.3305,-166.2704 148.366,-150.785"/>
<text text-anchor="middle" x="186.9478" y="-173.62" font-family="Times,serif" font-size="14.00" fill="#000000">+10</text>
</g>
<!-- 101A -->
<g id="node8" class="node">
<title>101A</title>
<ellipse fill="#c0c0c0" stroke="#000000" cx="207" cy="-134.82" rx="27" ry="18"/>
<text text-anchor="middle" x="207" y="-130.62" font-family="Times,serif" font-size="14.00" fill="#000000">101</text>
</g>
<!-- 1&#45;&#45;101A -->
<g id="edge7" class="edge">
<title>1&#45;&#45;101A</title>
<path fill="none" stroke="#000000" d="M207,-202.5817C207,-187.9872 207,-167.6197 207,-153.0321"/>
<text text-anchor="middle" x="221.4478" y="-173.62" font-family="Times,serif" font-size="14.00" fill="#000000">+100</text>
</g>
<!-- ...2 -->
<g id="node9" class="node">
<title>...2</title>
<ellipse fill="none" stroke="#000000" cx="279" cy="-134.82" rx="27" ry="18"/>
<text text-anchor="middle" x="279" y="-130.62" font-family="Times,serif" font-size="14.00" fill="#000000">...</text>
</g>
<!-- 1&#45;&#45;...2 -->
<g id="edge8" class="edge">
<title>1&#45;&#45;...2</title>
<path fill="none" stroke="#000000" d="M221.7333,-205.2919C227.5398,-199.0326 234.1952,-191.6812 240,-184.82 249.2437,-173.8941 259.1563,-161.1712 266.6748,-151.2938"/>
</g>
<!-- 20 -->
<g id="node10" class="node">
<title>20</title>
<ellipse fill="#c0c0c0" stroke="#000000" cx="351" cy="-134.82" rx="27" ry="18"/>
<text text-anchor="middle" x="351" y="-130.62" font-family="Times,serif" font-size="14.00" fill="#000000">20</text>
</g>
<!-- 10&#45;&#45;20 -->
<g id="edge9" class="edge">
<title>10&#45;&#45;20</title>
<path fill="none" stroke="#000000" d="M425.3232,-205.84C408.8043,-190.0553 382.948,-165.3481 366.4972,-149.6284"/>
<text text-anchor="middle" x="412.9478" y="-173.62" font-family="Times,serif" font-size="14.00" fill="#000000">+10</text>
</g>
<!-- 110A -->
<g id="node11" class="node">
<title>110A</title>
<ellipse fill="#c0c0c0" stroke="#000000" cx="423" cy="-134.82" rx="27" ry="18"/>
<text text-anchor="middle" x="423" y="-130.62" font-family="Times,serif" font-size="14.00" fill="#000000">110</text>
</g>
<!-- 10&#45;&#45;110A -->
<g id="edge10" class="edge">
<title>10&#45;&#45;110A</title>
<path fill="none" stroke="#000000" d="M437.1827,-202.5817C434.1074,-187.8886 429.8074,-167.3442 426.7501,-152.7372"/>
<text text-anchor="middle" x="448.4478" y="-173.62" font-family="Times,serif" font-size="14.00" fill="#000000">+100</text>
</g>
<!-- ...3 -->
<g id="node12" class="node">
<title>...3</title>
<ellipse fill="none" stroke="#000000" cx="495" cy="-134.82" rx="27" ry="18"/>
<text text-anchor="middle" x="495" y="-130.62" font-family="Times,serif" font-size="14.00" fill="#000000">...</text>
</g>
<!-- 10&#45;&#45;...3 -->
<g id="edge11" class="edge">
<title>10&#45;&#45;...3</title>
<path fill="none" stroke="#000000" d="M453.314,-204.6078C457.783,-198.5107 462.7698,-191.4491 467,-184.82 473.7434,-174.2526 480.6317,-161.9751 485.8888,-152.2307"/>
</g>
<!-- 200 -->
<g id="node13" class="node">
<title>200</title>
<ellipse fill="#c0c0c0" stroke="#000000" cx="567" cy="-134.82" rx="27" ry="18"/>
<text text-anchor="middle" x="567" y="-130.62" font-family="Times,serif" font-size="14.00" fill="#000000">200</text>
</g>
<!-- 100&#45;&#45;200 -->
<g id="edge12" class="edge">
<title>100&#45;&#45;200</title>
<path fill="none" stroke="#000000" d="M552.8173,-202.5817C555.8926,-187.8886 560.1926,-167.3442 563.2499,-152.7372"/>
<text text-anchor="middle" x="574.4478" y="-173.62" font-family="Times,serif" font-size="14.00" fill="#000000">+100</text>
</g>
<!-- ...4 -->
<g id="node14" class="node">
<title>...4</title>
<ellipse fill="none" stroke="#000000" cx="639" cy="-134.82" rx="27" ry="18"/>
<text text-anchor="middle" x="639" y="-130.62" font-family="Times,serif" font-size="14.00" fill="#000000">...</text>
</g>
<!-- 100&#45;&#45;...4 -->
<g id="edge13" class="edge">
<title>100&#45;&#45;...4</title>
<path fill="none" stroke="#000000" d="M567.0412,-207.0064C575.196,-200.5256 584.8164,-192.542 593,-184.82 604.4959,-173.9726 616.5604,-160.7817 625.4485,-150.6728"/>
</g>
<!-- 3 -->
<g id="node15" class="node">
<title>3</title>
<ellipse fill="none" stroke="#000000" cx="27" cy="-48.82" rx="27" ry="18"/>
<text text-anchor="middle" x="27" y="-44.62" font-family="Times,serif" font-size="14.00" fill="#000000">3</text>
</g>
<!-- 2&#45;&#45;3 -->
<g id="edge14" class="edge">
<title>2&#45;&#45;3</title>
<path fill="none" stroke="#000000" d="M55.7149,-117.4167C49.469,-102.496 40.517,-81.1107 34.2743,-66.1975"/>
<text text-anchor="middle" x="55.4478" y="-87.62" font-family="Times,serif" font-size="14.00" fill="#000000">+1</text>
</g>
<!-- 12 -->
<g id="node16" class="node">
<title>12</title>
<ellipse fill="#ffff00" stroke="#000000" cx="99" cy="-48.82" rx="27" ry="18"/>
<text text-anchor="middle" x="99" y="-44.62" font-family="Times,serif" font-size="14.00" fill="#000000">12</text>
</g>
<!-- 2&#45;&#45;12 -->
<g id="edge15" class="edge">
<title>2&#45;&#45;12</title>
<path fill="none" stroke="#000000" d="M70.2851,-117.4167C76.531,-102.496 85.483,-81.1107 91.7257,-66.1975"/>
<text text-anchor="middle" x="94.9478" y="-87.62" font-family="Times,serif" font-size="14.00" fill="#000000">+10</text>
</g>
</g>
</svg>
