<?xml version="1.0" encoding="UTF-8" standalone="no"?>
<!DOCTYPE svg PUBLIC "-//W3C//DTD SVG 1.1//EN"
 "http://www.w3.org/Graphics/SVG/1.1/DTD/svg11.dtd">
<!-- Generated by graphviz version 2.40.1 (20161225.0304)
 -->
<!-- Title: g Pages: 1 -->
<svg width="368pt" height="333pt"
 viewBox="0.00 0.00 368.00 332.82" xmlns="http://www.w3.org/2000/svg" xmlns:xlink="http://www.w3.org/1999/xlink">
<g id="graph0" class="graph" transform="scale(1 1) rotate(0) translate(4 328.82)">
<title>g</title>
<polygon fill="#ffffff" stroke="transparent" points="-4,4 -4,-328.82 364,-328.82 364,4 -4,4"/>
<text text-anchor="middle" x="180" y="-15.62" font-family="Times,serif" font-size="14.00" fill="#000000">k=6の場合</text>
<!-- 0 -->
<g id="node1" class="node">
<title>0</title>
<ellipse fill="none" stroke="#000000" cx="261" cy="-306.82" rx="27" ry="18"/>
<text text-anchor="middle" x="261" y="-302.62" font-family="Times,serif" font-size="14.00" fill="#000000">0</text>
</g>
<!-- 1 -->
<g id="node2" class="node">
<title>1</title>
<ellipse fill="none" stroke="#000000" cx="171" cy="-220.82" rx="27" ry="18"/>
<text text-anchor="middle" x="171" y="-216.62" font-family="Times,serif" font-size="14.00" fill="#000000">1</text>
</g>
<!-- 0&#45;&#45;1 -->
<g id="edge1" class="edge">
<title>0&#45;&#45;1</title>
<path fill="none" stroke="#000000" d="M245.3232,-291.84C228.8043,-276.0553 202.948,-251.3481 186.4972,-235.6284"/>
<text text-anchor="middle" x="229.4478" y="-259.62" font-family="Times,serif" font-size="14.00" fill="#000000">+1</text>
</g>
<!-- 10 -->
<g id="node3" class="node">
<title>10</title>
<ellipse fill="none" stroke="#000000" cx="261" cy="-220.82" rx="27" ry="18"/>
<text text-anchor="middle" x="261" y="-216.62" font-family="Times,serif" font-size="14.00" fill="#000000">10</text>
</g>
<!-- 0&#45;&#45;10 -->
<g id="edge2" class="edge">
<title>0&#45;&#45;10</title>
<path fill="none" stroke="#000000" d="M261,-288.5817C261,-273.9872 261,-253.6197 261,-239.0321"/>
<text text-anchor="middle" x="271.9478" y="-259.62" font-family="Times,serif" font-size="14.00" fill="#000000">+10</text>
</g>
<!-- 100 -->
<g id="node4" class="node">
<title>100</title>
<ellipse fill="#c0c0c0" stroke="#000000" cx="333" cy="-220.82" rx="27" ry="18"/>
<text text-anchor="middle" x="333" y="-216.62" font-family="Times,serif" font-size="14.00" fill="#000000">100</text>
</g>
<!-- 0&#45;&#45;100 -->
<g id="edge3" class="edge">
<title>0&#45;&#45;100</title>
<path fill="none" stroke="#000000" d="M274.2059,-291.0463C287.1158,-275.6261 306.6695,-252.2704 319.634,-236.785"/>
<text text-anchor="middle" x="316.4478" y="-259.62" font-family="Times,serif" font-size="14.00" fill="#000000">+100</text>
</g>
<!-- 2 -->
<g id="node5" class="node">
<title>2</title>
<ellipse fill="none" stroke="#000000" cx="63" cy="-134.82" rx="27" ry="18"/>
<text text-anchor="middle" x="63" y="-130.62" font-family="Times,serif" font-size="14.00" fill="#000000">2</text>
</g>
<!-- 1&#45;&#45;2 -->
<g id="edge4" class="edge">
<title>1&#45;&#45;2</title>
<path fill="none" stroke="#000000" d="M153.6479,-207.0027C133.6132,-191.0491 100.8353,-164.9481 80.6678,-148.8888"/>
<text text-anchor="middle" x="131.4478" y="-173.62" font-family="Times,serif" font-size="14.00" fill="#000000">+1</text>
</g>
<!-- 11A -->
<g id="node6" class="node">
<title>11A</title>
<ellipse fill="none" stroke="#000000" cx="135" cy="-134.82" rx="27" ry="18"/>
<text text-anchor="middle" x="135" y="-130.62" font-family="Times,serif" font-size="14.00" fill="#000000">11</text>
</g>
<!-- 1&#45;&#45;11A -->
<g id="edge5" class="edge">
<title>1&#45;&#45;11A</title>
<path fill="none" stroke="#000000" d="M163.7149,-203.4167C157.469,-188.496 148.517,-167.1107 142.2743,-152.1975"/>
<text text-anchor="middle" x="166.9478" y="-173.62" font-family="Times,serif" font-size="14.00" fill="#000000">+10</text>
</g>
<!-- 101A -->
<g id="node7" class="node">
<title>101A</title>
<ellipse fill="#c0c0c0" stroke="#000000" cx="207" cy="-134.82" rx="27" ry="18"/>
<text text-anchor="middle" x="207" y="-130.62" font-family="Times,serif" font-size="14.00" fill="#000000">101</text>
</g>
<!-- 1&#45;&#45;101A -->
<g id="edge6" class="edge">
<title>1&#45;&#45;101A</title>
<path fill="none" stroke="#000000" d="M178.2851,-203.4167C184.531,-188.496 193.483,-167.1107 199.7257,-152.1975"/>
<text text-anchor="middle" x="206.4478" y="-173.62" font-family="Times,serif" font-size="14.00" fill="#000000">+100</text>
</g>
<!-- 20 -->
<g id="node8" class="node">
<title>20</title>
<ellipse fill="#c0c0c0" stroke="#000000" cx="279" cy="-134.82" rx="27" ry="18"/>
<text text-anchor="middle" x="279" y="-130.62" font-family="Times,serif" font-size="14.00" fill="#000000">20</text>
</g>
<!-- 10&#45;&#45;20 -->
<g id="edge7" class="edge">
<title>10&#45;&#45;20</title>
<path fill="none" stroke="#000000" d="M264.8173,-202.5817C267.8926,-187.8886 272.1926,-167.3442 275.2499,-152.7372"/>
<text text-anchor="middle" x="282.9478" y="-173.62" font-family="Times,serif" font-size="14.00" fill="#000000">+10</text>
</g>
<!-- 3 -->
<g id="node9" class="node">
<title>3</title>
<ellipse fill="none" stroke="#000000" cx="27" cy="-48.82" rx="27" ry="18"/>
<text text-anchor="middle" x="27" y="-44.62" font-family="Times,serif" font-size="14.00" fill="#000000">3</text>
</g>
<!-- 2&#45;&#45;3 -->
<g id="edge8" class="edge">
<title>2&#45;&#45;3</title>
<path fill="none" stroke="#000000" d="M55.7149,-117.4167C49.469,-102.496 40.517,-81.1107 34.2743,-66.1975"/>
<text text-anchor="middle" x="55.4478" y="-87.62" font-family="Times,serif" font-size="14.00" fill="#000000">+1</text>
</g>
<!-- 12 -->
<g id="node10" class="node">
<title>12</title>
<ellipse fill="#ffff00" stroke="#000000" cx="99" cy="-48.82" rx="27" ry="18"/>
<text text-anchor="middle" x="99" y="-44.62" font-family="Times,serif" font-size="14.00" fill="#000000">12</text>
</g>
<!-- 2&#45;&#45;12 -->
<g id="edge9" class="edge">
<title>2&#45;&#45;12</title>
<path fill="none" stroke="#000000" d="M70.2851,-117.4167C76.531,-102.496 85.483,-81.1107 91.7257,-66.1975"/>
<text text-anchor="middle" x="94.9478" y="-87.62" font-family="Times,serif" font-size="14.00" fill="#000000">+10</text>
</g>
</g>
</svg>
