<?xml version="1.0" encoding="UTF-8" standalone="no"?>
<!DOCTYPE svg PUBLIC "-//W3C//DTD SVG 1.1//EN"
 "http://www.w3.org/Graphics/SVG/1.1/DTD/svg11.dtd">
<!-- Generated by graphviz version 2.40.1 (20161225.0304)
 -->
<!-- Title: g Pages: 1 -->
<svg width="890pt" height="333pt"
 viewBox="0.00 0.00 890.00 332.82" xmlns="http://www.w3.org/2000/svg" xmlns:xlink="http://www.w3.org/1999/xlink">
<g id="graph0" class="graph" transform="scale(1 1) rotate(0) translate(4 328.82)">
<title>g</title>
<polygon fill="#ffffff" stroke="transparent" points="-4,4 -4,-328.82 886,-328.82 886,4 -4,4"/>
<text text-anchor="middle" x="441" y="-15.62" font-family="Times,serif" font-size="14.00" fill="#000000">k=6の場合</text>
<!-- 0 -->
<g id="node1" class="node">
<title>0</title>
<ellipse fill="none" stroke="#000000" cx="585" cy="-306.82" rx="27" ry="18"/>
<text text-anchor="middle" x="585" y="-302.62" font-family="Times,serif" font-size="14.00" fill="#000000">0</text>
</g>
<!-- 1 -->
<g id="node2" class="node">
<title>1</title>
<ellipse fill="none" stroke="#000000" cx="207" cy="-220.82" rx="27" ry="18"/>
<text text-anchor="middle" x="207" y="-216.62" font-family="Times,serif" font-size="14.00" fill="#000000">1</text>
</g>
<!-- 0&#45;&#45;1 -->
<g id="edge1" class="edge">
<title>0&#45;&#45;1</title>
<path fill="none" stroke="#000000" d="M559.3157,-300.9765C490.3562,-285.2873 301.72,-242.3701 232.7196,-226.6716"/>
<text text-anchor="middle" x="426.4478" y="-259.62" font-family="Times,serif" font-size="14.00" fill="#000000">+1</text>
</g>
<!-- 10 -->
<g id="node3" class="node">
<title>10</title>
<ellipse fill="none" stroke="#000000" cx="495" cy="-220.82" rx="27" ry="18"/>
<text text-anchor="middle" x="495" y="-216.62" font-family="Times,serif" font-size="14.00" fill="#000000">10</text>
</g>
<!-- 0&#45;&#45;10 -->
<g id="edge2" class="edge">
<title>0&#45;&#45;10</title>
<path fill="none" stroke="#000000" d="M569.3232,-291.84C552.8043,-276.0553 526.948,-251.3481 510.4972,-235.6284"/>
<text text-anchor="middle" x="556.9478" y="-259.62" font-family="Times,serif" font-size="14.00" fill="#000000">+10</text>
</g>
<!-- 100 -->
<g id="node4" class="node">
<title>100</title>
<ellipse fill="none" stroke="#000000" cx="675" cy="-220.82" rx="27" ry="18"/>
<text text-anchor="middle" x="675" y="-216.62" font-family="Times,serif" font-size="14.00" fill="#000000">100</text>
</g>
<!-- 0&#45;&#45;100 -->
<g id="edge3" class="edge">
<title>0&#45;&#45;100</title>
<path fill="none" stroke="#000000" d="M600.6768,-291.84C617.1957,-276.0553 643.052,-251.3481 659.5028,-235.6284"/>
<text text-anchor="middle" x="650.4478" y="-259.62" font-family="Times,serif" font-size="14.00" fill="#000000">+100</text>
</g>
<!-- ...1 -->
<g id="node5" class="node">
<title>...1</title>
<ellipse fill="none" stroke="#000000" cx="747" cy="-220.82" rx="27" ry="18"/>
<text text-anchor="middle" x="747" y="-216.62" font-family="Times,serif" font-size="14.00" fill="#000000">...</text>
</g>
<!-- 0&#45;&#45;...1 -->
<g id="edge4" class="edge">
<title>0&#45;&#45;...1</title>
<path fill="none" stroke="#000000" d="M608.6576,-297.8964C625.7596,-291.1553 649.2344,-281.2985 669,-270.82 690.033,-259.6696 712.8164,-244.7005 728.2965,-234.0548"/>
</g>
<!-- 2 -->
<g id="node6" class="node">
<title>2</title>
<ellipse fill="none" stroke="#000000" cx="63" cy="-134.82" rx="27" ry="18"/>
<text text-anchor="middle" x="63" y="-130.62" font-family="Times,serif" font-size="14.00" fill="#000000">2</text>
</g>
<!-- 1&#45;&#45;2 -->
<g id="edge5" class="edge">
<title>1&#45;&#45;2</title>
<path fill="none" stroke="#000000" d="M186.6737,-208.6807C159.2293,-192.2903 110.614,-163.2562 83.2229,-146.8976"/>
<text text-anchor="middle" x="151.4478" y="-173.62" font-family="Times,serif" font-size="14.00" fill="#000000">+1</text>
</g>
<!-- 11A -->
<g id="node7" class="node">
<title>11A</title>
<ellipse fill="none" stroke="#000000" cx="135" cy="-134.82" rx="27" ry="18"/>
<text text-anchor="middle" x="135" y="-130.62" font-family="Times,serif" font-size="14.00" fill="#000000">11</text>
</g>
<!-- 1&#45;&#45;11A -->
<g id="edge6" class="edge">
<title>1&#45;&#45;11A</title>
<path fill="none" stroke="#000000" d="M193.7941,-205.0463C180.8842,-189.6261 161.3305,-166.2704 148.366,-150.785"/>
<text text-anchor="middle" x="186.9478" y="-173.62" font-family="Times,serif" font-size="14.00" fill="#000000">+10</text>
</g>
<!-- 101A -->
<g id="node8" class="node">
<title>101A</title>
<ellipse fill="none" stroke="#000000" cx="207" cy="-134.82" rx="27" ry="18"/>
<text text-anchor="middle" x="207" y="-130.62" font-family="Times,serif" font-size="14.00" fill="#000000">101</text>
</g>
<!-- 1&#45;&#45;101A -->
<g id="edge7" class="edge">
<title>1&#45;&#45;101A</title>
<path fill="none" stroke="#000000" d="M207,-202.5817C207,-187.9872 207,-167.6197 207,-153.0321"/>
<text text-anchor="middle" x="221.4478" y="-173.62" font-family="Times,serif" font-size="14.00" fill="#000000">+100</text>
</g>
<!-- ...2 -->
<g id="node9" class="node">
<title>...2</title>
<ellipse fill="none" stroke="#000000" cx="279" cy="-134.82" rx="27" ry="18"/>
<text text-anchor="middle" x="279" y="-130.62" font-family="Times,serif" font-size="14.00" fill="#000000">...</text>
</g>
<!-- 1&#45;&#45;...2 -->
<g id="edge8" class="edge">
<title>1&#45;&#45;...2</title>
<path fill="none" stroke="#000000" d="M221.7333,-205.2919C227.5398,-199.0326 234.1952,-191.6812 240,-184.82 249.2437,-173.8941 259.1563,-161.1712 266.6748,-151.2938"/>
</g>
<!-- 11B -->
<g id="node10" class="node">
<title>11B</title>
<ellipse fill="#c0c0c0" stroke="#000000" cx="351" cy="-134.82" rx="27" ry="18"/>
<text text-anchor="middle" x="351" y="-130.62" font-family="Times,serif" font-size="14.00" fill="#000000">11</text>
</g>
<!-- 10&#45;&#45;11B -->
<g id="edge9" class="edge">
<title>10&#45;&#45;11B</title>
<path fill="none" stroke="#000000" d="M474.6737,-208.6807C447.2293,-192.2903 398.614,-163.2562 371.2229,-146.8976"/>
<text text-anchor="middle" x="439.4478" y="-173.62" font-family="Times,serif" font-size="14.00" fill="#000000">+1</text>
</g>
<!-- 20 -->
<g id="node11" class="node">
<title>20</title>
<ellipse fill="none" stroke="#000000" cx="423" cy="-134.82" rx="27" ry="18"/>
<text text-anchor="middle" x="423" y="-130.62" font-family="Times,serif" font-size="14.00" fill="#000000">20</text>
</g>
<!-- 10&#45;&#45;20 -->
<g id="edge10" class="edge">
<title>10&#45;&#45;20</title>
<path fill="none" stroke="#000000" d="M481.7941,-205.0463C468.8842,-189.6261 449.3305,-166.2704 436.366,-150.785"/>
<text text-anchor="middle" x="474.9478" y="-173.62" font-family="Times,serif" font-size="14.00" fill="#000000">+10</text>
</g>
<!-- 110A -->
<g id="node12" class="node">
<title>110A</title>
<ellipse fill="none" stroke="#000000" cx="495" cy="-134.82" rx="27" ry="18"/>
<text text-anchor="middle" x="495" y="-130.62" font-family="Times,serif" font-size="14.00" fill="#000000">110</text>
</g>
<!-- 10&#45;&#45;110A -->
<g id="edge11" class="edge">
<title>10&#45;&#45;110A</title>
<path fill="none" stroke="#000000" d="M495,-202.5817C495,-187.9872 495,-167.6197 495,-153.0321"/>
<text text-anchor="middle" x="509.4478" y="-173.62" font-family="Times,serif" font-size="14.00" fill="#000000">+100</text>
</g>
<!-- ...3 -->
<g id="node13" class="node">
<title>...3</title>
<ellipse fill="none" stroke="#000000" cx="567" cy="-134.82" rx="27" ry="18"/>
<text text-anchor="middle" x="567" y="-130.62" font-family="Times,serif" font-size="14.00" fill="#000000">...</text>
</g>
<!-- 10&#45;&#45;...3 -->
<g id="edge12" class="edge">
<title>10&#45;&#45;...3</title>
<path fill="none" stroke="#000000" d="M509.7333,-205.2919C515.5398,-199.0326 522.1952,-191.6812 528,-184.82 537.2437,-173.8941 547.1563,-161.1712 554.6748,-151.2938"/>
</g>
<!-- 101B -->
<g id="node14" class="node">
<title>101B</title>
<ellipse fill="#c0c0c0" stroke="#000000" cx="639" cy="-134.82" rx="27" ry="18"/>
<text text-anchor="middle" x="639" y="-130.62" font-family="Times,serif" font-size="14.00" fill="#000000">101</text>
</g>
<!-- 100&#45;&#45;101B -->
<g id="edge13" class="edge">
<title>100&#45;&#45;101B</title>
<path fill="none" stroke="#000000" d="M667.7149,-203.4167C661.469,-188.496 652.517,-167.1107 646.2743,-152.1975"/>
<text text-anchor="middle" x="667.4478" y="-173.62" font-family="Times,serif" font-size="14.00" fill="#000000">+1</text>
</g>
<!-- 110B -->
<g id="node15" class="node">
<title>110B</title>
<ellipse fill="#c0c0c0" stroke="#000000" cx="711" cy="-134.82" rx="27" ry="18"/>
<text text-anchor="middle" x="711" y="-130.62" font-family="Times,serif" font-size="14.00" fill="#000000">110</text>
</g>
<!-- 100&#45;&#45;110B -->
<g id="edge14" class="edge">
<title>100&#45;&#45;110B</title>
<path fill="none" stroke="#000000" d="M682.2851,-203.4167C688.531,-188.496 697.483,-167.1107 703.7257,-152.1975"/>
<text text-anchor="middle" x="706.9478" y="-173.62" font-family="Times,serif" font-size="14.00" fill="#000000">+10</text>
</g>
<!-- 200 -->
<g id="node16" class="node">
<title>200</title>
<ellipse fill="none" stroke="#000000" cx="783" cy="-134.82" rx="27" ry="18"/>
<text text-anchor="middle" x="783" y="-130.62" font-family="Times,serif" font-size="14.00" fill="#000000">200</text>
</g>
<!-- 100&#45;&#45;200 -->
<g id="edge15" class="edge">
<title>100&#45;&#45;200</title>
<path fill="none" stroke="#000000" d="M692.9617,-207.2818C701.7661,-200.59 712.4945,-192.3528 722,-184.82 737.0248,-172.9134 753.8596,-159.0761 766.0313,-148.9806"/>
<text text-anchor="middle" x="753.4478" y="-173.62" font-family="Times,serif" font-size="14.00" fill="#000000">+100</text>
</g>
<!-- ...4 -->
<g id="node17" class="node">
<title>...4</title>
<ellipse fill="none" stroke="#000000" cx="855" cy="-134.82" rx="27" ry="18"/>
<text text-anchor="middle" x="855" y="-130.62" font-family="Times,serif" font-size="14.00" fill="#000000">...</text>
</g>
<!-- 100&#45;&#45;...4 -->
<g id="edge16" class="edge">
<title>100&#45;&#45;...4</title>
<path fill="none" stroke="#000000" d="M696.037,-209.5245C700.8788,-207.1439 706.059,-204.7666 711,-202.82 737.2994,-192.459 746.1276,-196.2057 772,-184.82 795.25,-174.5884 819.9493,-159.0311 836.2991,-147.9905"/>
</g>
<!-- 3 -->
<g id="node18" class="node">
<title>3</title>
<ellipse fill="none" stroke="#000000" cx="27" cy="-48.82" rx="27" ry="18"/>
<text text-anchor="middle" x="27" y="-44.62" font-family="Times,serif" font-size="14.00" fill="#000000">3</text>
</g>
<!-- 2&#45;&#45;3 -->
<g id="edge17" class="edge">
<title>2&#45;&#45;3</title>
<path fill="none" stroke="#000000" d="M55.7149,-117.4167C49.469,-102.496 40.517,-81.1107 34.2743,-66.1975"/>
<text text-anchor="middle" x="55.4478" y="-87.62" font-family="Times,serif" font-size="14.00" fill="#000000">+1</text>
</g>
<!-- 12 -->
<g id="node19" class="node">
<title>12</title>
<ellipse fill="#ffff00" stroke="#000000" cx="99" cy="-48.82" rx="27" ry="18"/>
<text text-anchor="middle" x="99" y="-44.62" font-family="Times,serif" font-size="14.00" fill="#000000">12</text>
</g>
<!-- 2&#45;&#45;12 -->
<g id="edge18" class="edge">
<title>2&#45;&#45;12</title>
<path fill="none" stroke="#000000" d="M70.2851,-117.4167C76.531,-102.496 85.483,-81.1107 91.7257,-66.1975"/>
<text text-anchor="middle" x="94.9478" y="-87.62" font-family="Times,serif" font-size="14.00" fill="#000000">+10</text>
</g>
</g>
</svg>
